<svg width="3669" height="1000" xmlns="http://www.w3.org/2000/svg" xmlns:xlink="http://www.w3.org/1999/xlink" overflow="hidden"><defs><clipPath id="clip0"><rect x="302" y="293" width="3669" height="1000"/></clipPath></defs><g clip-path="url(#clip0)" transform="translate(-302 -293)"><rect x="3534.5" y="944.5" width="338" height="195" stroke="#BFBFBF" stroke-width="4.58333" stroke-miterlimit="8" fill="none"/><text font-family="SimSun,SimSun_MSFontService,sans-serif" font-weight="400" font-size="55" transform="matrix(1 0 0 1 3592.71 1063)">光接收机</text><rect x="1605.5" y="944.5" width="338" height="195" stroke="#BFBFBF" stroke-width="4.58333" stroke-miterlimit="8" fill="none"/><text font-family="Times New Roman,Times New Roman_MSFontService,sans-serif" font-weight="400" font-size="55" transform="matrix(1 0 0 1 1726.34 1062)">FFT</text><rect x="2684.5" y="944.5" width="338" height="195" stroke="#BFBFBF" stroke-width="4.58333" stroke-miterlimit="8" fill="none"/><text font-family="SimSun,SimSun_MSFontService,sans-serif" font-weight="400" font-size="55" transform="matrix(1 0 0 1 2770.37 1063)">电信号</text><rect x="2144.5" y="944.5" width="338" height="195" stroke="#BFBFBF" stroke-width="4.58333" stroke-miterlimit="8" fill="none"/><text font-family="Times New Roman,Times New Roman_MSFontService,sans-serif" font-weight="400" font-size="55" transform="matrix(1 0 0 1 2200.37 1063)">S/P<tspan font-family="SimSun,SimSun_MSFontService,sans-serif" font-size="55" x="76.198" y="0">、</tspan><tspan font-size="55" x="131.198" y="0">A/D</tspan></text><rect x="1065.5" y="944.5" width="338" height="195" stroke="#BFBFBF" stroke-width="4.58333" stroke-miterlimit="8" fill="none"/><text font-family="SimSun,SimSun_MSFontService,sans-serif" font-weight="400" font-size="55" transform="matrix(1 0 0 1 1123.97 1033)">取出有用<tspan font-size="55" x="0" y="63">频域信号</tspan></text><rect x="525.5" y="944.5" width="338" height="195" stroke="#BFBFBF" stroke-width="4.58333" stroke-miterlimit="8" fill="none"/><text font-family="Times New Roman,Times New Roman_MSFontService,sans-serif" font-weight="400" font-size="55" transform="matrix(1 0 0 1 581.469 1063)">DCO<tspan font-family="SimSun,SimSun_MSFontService,sans-serif" font-size="55" x="115.729" y="0">解调</tspan></text><path d="M525.552 1047.29 424.743 1047.14 424.757 1037.98 525.565 1038.12ZM429.313 1056.32 383.5 1042.5 429.354 1028.82Z" fill="#7F7F7F"/><path d="M8.19509e-06-4.58333 160.589-4.58305 160.589 4.58362-8.19509e-06 4.58333ZM156.006-13.7497 201.839 0.000360892 156.006 13.7503Z" fill="#7F7F7F" transform="matrix(-1 0 0 1 3534.34 1042.5)"/><path d="M8.19507e-06-4.58333 160.59-4.58305 160.59 4.58362-8.19507e-06 4.58333ZM156.006-13.7497 201.84 0.000360892 156.006 13.7503Z" fill="#7F7F7F" transform="matrix(-1 0 0 1 3224.34 1042.5)"/><path d="M8.19507e-06-4.58333 160.59-4.58305 160.59 4.58362-8.19507e-06 4.58333ZM156.006-13.7497 201.84 0.000360892 156.006 13.7503Z" fill="#7F7F7F" transform="matrix(-1 0 0 1 2145.34 1042.5)"/><path d="M8.19507e-06-4.58333 160.59-4.58305 160.59 4.58362-8.19507e-06 4.58333ZM156.006-13.7497 201.84 0.000360892 156.006 13.7503Z" fill="#7F7F7F" transform="matrix(-1 0 0 1 1605.34 1042.5)"/><path d="M8.19507e-06-4.58333 160.59-4.58305 160.59 4.58362-8.19507e-06 4.58333ZM156.006-13.7497 201.84 0.000360892 156.006 13.7503Z" fill="#7F7F7F" transform="matrix(-1 0 0 1 1065.34 1042.5)"/><path d="M8.19507e-06-4.58333 160.59-4.58305 160.59 4.58362-8.19507e-06 4.58333ZM156.006-13.7497 201.84 0.000360892 156.006 13.7503Z" fill="#7F7F7F" transform="matrix(-1 0 0 1 2684.34 1042.5)"/><path d="M3283.08 650.5 3283.08 947.359 3273.92 947.359 3273.92 650.5ZM3292.25 942.776 3278.5 988.609 3264.75 942.776Z" fill="#7F7F7F"/><text font-family="Times New Roman,Times New Roman_MSFontService,sans-serif" font-weight="400" font-size="55" transform="matrix(1 0 0 1 3054.77 782)">AWGN</text><path d="M3708.08 553.5 3708.08 602.634 3698.92 602.634 3698.92 553.5ZM3717.25 598.051 3703.5 643.884 3689.75 598.051Z" fill="#7F7F7F"/><path d="M3708.08 838.5 3708.08 903.885 3698.92 903.885 3698.92 838.5ZM3717.25 899.302 3703.5 945.135 3689.75 899.302Z" fill="#7F7F7F"/><rect x="3534.5" y="643.5" width="338" height="195" stroke="#BFBFBF" stroke-width="4.58333" stroke-miterlimit="8" fill="none"/><text font-family="SimSun,SimSun_MSFontService,sans-serif" font-weight="400" font-size="55" transform="matrix(1 0 0 1 3620.21 761)">光信道</text><rect x="525.5" y="358.5" width="338" height="195" stroke="#BFBFBF" stroke-width="4.58333" stroke-miterlimit="8" fill="none"/><text font-family="Times New Roman,Times New Roman_MSFontService,sans-serif" font-weight="400" font-size="55" transform="matrix(1 0 0 1 581.469 476)">DCO<tspan font-family="SimSun,SimSun_MSFontService,sans-serif" font-size="55" x="115.729" y="0">调制</tspan></text><rect x="1127.5" y="358.5" width="338" height="195" stroke="#BFBFBF" stroke-width="4.58333" stroke-miterlimit="8" fill="none"/><text font-family="SimSun,SimSun_MSFontService,sans-serif" font-weight="400" font-size="55" transform="matrix(1 0 0 1 1186.01 446)">厄米特对<tspan font-size="55" x="82.5" y="63">称</tspan></text><rect x="1729.5" y="358.5" width="338" height="195" stroke="#BFBFBF" stroke-width="4.58333" stroke-miterlimit="8" fill="none"/><text font-family="Times New Roman,Times New Roman_MSFontService,sans-serif" font-weight="400" font-size="55" transform="matrix(1 0 0 1 1841.25 475)">IFFT</text><rect x="2330.5" y="358.5" width="338" height="195" stroke="#BFBFBF" stroke-width="4.58333" stroke-miterlimit="8" fill="none"/><text font-family="SimSun,SimSun_MSFontService,sans-serif" font-weight="400" font-size="55" transform="matrix(1 0 0 1 2409.12 443)">加偏置<tspan font-family="Times New Roman,Times New Roman_MSFontService,sans-serif" font-size="55" x="165" y="0">/</tspan><tspan font-size="55" x="35.2459" y="66">削波</tspan></text><rect x="2932.5" y="358.5" width="338" height="195" stroke="#BFBFBF" stroke-width="4.58333" stroke-miterlimit="8" fill="none"/><text font-family="Times New Roman,Times New Roman_MSFontService,sans-serif" font-weight="400" font-size="55" transform="matrix(1 0 0 1 2988.17 476)">P/S<tspan font-family="SimSun,SimSun_MSFontService,sans-serif" font-size="55" x="76.198" y="0">、</tspan><tspan font-size="55" x="131.198" y="0">D/A</tspan></text><rect x="3534.5" y="358.5" width="338" height="195" stroke="#BFBFBF" stroke-width="4.58333" stroke-miterlimit="8" fill="none"/><text font-family="Times New Roman,Times New Roman_MSFontService,sans-serif" font-weight="400" font-size="55" transform="matrix(1 0 0 1 3649.14 475)">LED</text><path d="M863.5 450.917 1086.13 450.917 1086.13 460.084 863.5 460.083ZM1081.55 441.75 1127.38 455.5 1081.55 469.25Z" fill="#7F7F7F"/><path d="M1465.5 450.917 1688.13 450.917 1688.13 460.084 1465.5 460.083ZM1683.55 441.75 1729.38 455.5 1683.55 469.25Z" fill="#7F7F7F"/><path d="M2067.5 450.917 2290.13 450.917 2290.13 460.084 2067.5 460.083ZM2285.55 441.75 2331.38 455.5 2285.55 469.25Z" fill="#7F7F7F"/><path d="M2668.5 450.917 2891.13 450.917 2891.13 460.084 2668.5 460.083ZM2886.55 441.75 2932.38 455.5 2886.55 469.25Z" fill="#7F7F7F"/><path d="M3270.5 450.917 3493.13 450.917 3493.13 460.084 3270.5 460.083ZM3488.55 441.75 3534.38 455.5 3488.55 469.25Z" fill="#7F7F7F"/><path d="M383.517 450.917 484.326 451.29 484.292 460.457 383.483 460.083ZM479.776 442.107 525.559 456.027 479.675 469.607Z" fill="#7F7F7F"/><path d="M3224.5 1042.5C3224.5 1012.68 3248.68 988.5 3278.5 988.5 3308.32 988.5 3332.5 1012.68 3332.5 1042.5 3332.5 1072.32 3308.32 1096.5 3278.5 1096.5 3248.68 1096.5 3224.5 1072.32 3224.5 1042.5Z" stroke="#BFBFBF" stroke-width="4.58333" stroke-miterlimit="8" fill="#D9D9D9" fill-rule="evenodd"/><text font-family="STKaiti,STKaiti_MSFontService,sans-serif" font-weight="700" font-size="83" transform="matrix(1 0 0 1 3250.29 1068)">+<tspan font-family="Times New Roman,Times New Roman_MSFontService,sans-serif" font-weight="400" font-size="55" x="-1341.94" y="-407">DCO</tspan><tspan font-family="Times New Roman,Times New Roman_MSFontService,sans-serif" font-weight="400" font-size="55" x="-1226.21" y="-407">-</tspan><tspan font-family="Times New Roman,Times New Roman_MSFontService,sans-serif" font-weight="400" font-size="55" x="-1207.88" y="-407">OFDM </tspan><tspan font-family="SimSun,SimSun_MSFontService,sans-serif" font-weight="400" font-size="55" x="-1036" y="-407">发送端</tspan><tspan font-family="Times New Roman,Times New Roman_MSFontService,sans-serif" font-weight="400" font-size="55" x="-1341.42" y="178">DCO</tspan><tspan font-family="Times New Roman,Times New Roman_MSFontService,sans-serif" font-weight="400" font-size="55" x="-1225.69" y="178">-</tspan><tspan font-family="Times New Roman,Times New Roman_MSFontService,sans-serif" font-weight="400" font-size="55" x="-1207.36" y="178">OFDM </tspan><tspan font-family="SimSun,SimSun_MSFontService,sans-serif" font-weight="400" font-size="55" x="-1035.48" y="178">接收端</tspan></text><path d="M0 0 3117.37 0 3117.37 106.33 3664 106.33 3664 395 0 395Z" stroke="#262626" stroke-width="4.58333" stroke-miterlimit="8" stroke-dasharray="36.6667 13.75" fill="none" fill-rule="evenodd" transform="matrix(1 0 0 -1 304.5 690.5)"/><path d="M304.5 811.5 3432.57 811.5 3432.57 884.44 3968.5 884.44 3968.5 1276.5 304.5 1276.5Z" stroke="#262626" stroke-width="4.58333" stroke-miterlimit="8" stroke-dasharray="36.6667 13.75" fill="none" fill-rule="evenodd"/></g></svg>